Patient4_TMGait_0pt5_01_right_04_GRF.mot
version=1
nRows=66
nColumns=19
inDegrees=no
endheader
time	F1x	F1y	F1z	M1x	M1y	M1z	F2x	F2y	F2z	M2x	M2y	M2z	EC1x	EC1y	EC1z	EC2x	EC2y	EC2z
4.56	-5.1117	738.3075	61.514	-272.636	-46.7221	557.0197	4.2876	5.2964	-6.9301	4.1773	0.55635	10.2002	-0.0592	0.0182	-0.0073	-0.0462	0.0165	0.9585
4.574	-2.9262	735.4085	59.8818	-271.1884	-44.6569	552.942	2.6414	4.2693	-4.9322	3.159	0.70888	7.4809	-0.0592	0.0182	-0.0073	-0.0462	0.0165	0.9585
4.588	-0.38632	732.932	57.992	-269.9978	-42.1706	548.22	1.2456	3.405	-3.123	2.2595	0.73355	5.1781	-0.0592	0.0182	-0.0073	-0.0462	0.0165	0.9585
4.602	2.4324	731.4202	55.9324	-269.3025	-39.3518	543.2922	0.17989	2.7648	-1.6671	1.553	0.68556	3.4393	-0.0592	0.0182	-0.0073	-0.0462	0.0165	0.9585
4.616	5.4719	731.1825	53.7845	-269.2207	-36.2895	538.5248	-0.56049	2.3484	-0.59925	1.0531	0.60223	2.2629	-0.0592	0.0182	-0.0073	-0.0462	0.0165	0.9585
4.63	8.6927	732.2089	51.6553	-269.7256	-33.0959	534.0944	-1.0247	2.1152	0.11241	0.73487	0.51412	1.5571	-0.0592	0.0182	-0.0073	-0.0462	0.0165	0.9585
4.644	12.0608	734.2363	49.6569	-270.6744	-29.8861	530.0141	-1.2814	2.0018	0.53632	0.55431	0.43735	1.1962	-0.0592	0.0182	-0.0073	-0.0462	0.0165	0.9585
4.658	15.506	736.8763	47.9229	-271.8633	-26.802	526.2138	-1.3986	1.9286	0.74555	0.45772	0.38157	1.0318	-0.0592	0.0182	-0.0073	-0.0462	0.0165	0.9585
4.672	18.9447	739.758	46.5909	-273.0897	-23.9899	522.618	-1.4324	1.8042	0.81217	0.38935	0.34926	0.91607	-0.0592	0.0182	-0.0073	-0.0462	0.0165	0.9585
4.686	22.2588	742.622	45.7729	-274.1927	-21.584	519.2159	-1.4312	1.544	0.79437	0.29816	0.34216	0.73339	-0.0592	0.0182	-0.0073	-0.0462	0.0165	0.9585
4.7	25.328	745.3382	45.5404	-275.0756	-19.6902	516.0419	-1.4182	1.0656	0.7382	0.13853	0.35087	0.37791	-0.0592	0.0182	-0.0073	-0.0462	0.0165	0.9585
4.714	28.0597	747.9139	45.9016	-275.7181	-18.3619	513.1804	-1.3998	0.30067	0.67534	-0.12657	0.35966	-0.22834	-0.0592	0.0182	-0.0073	-0.0462	0.0165	0.9585
4.728	30.3834	750.4418	46.8196	-276.1537	-17.607	510.7267	-1.3651	-0.79025	0.62923	-0.51966	0.34655	-1.1329	-0.0592	0.0182	-0.0073	-0.0462	0.0165	0.9585
4.742	32.3014	753.0366	48.2233	-276.4454	-17.3831	508.7389	-1.282	-2.1866	0.60807	-1.0366	0.29427	-2.3258	-0.0592	0.0182	-0.0073	-0.0462	0.0165	0.9585
4.756	33.8612	755.7893	50.0115	-276.6616	-17.6058	507.2161	-1.1022	-3.7686	0.61508	-1.6322	0.18177	-3.7007	-0.0592	0.0182	-0.0073	-0.0462	0.0165	0.9585
4.77	35.16	758.7342	52.0809	-276.8566	-18.1703	506.0819	-0.75239	-5.2659	0.63705	-2.2008	-0.0041987	-5.0136	-0.0592	0.0182	-0.0073	-0.0462	0.0165	0.9585
4.784	36.3152	761.8417	54.3329	-277.0595	-18.9619	505.2135	-0.15155	-6.2004	0.66174	-2.5564	-0.28089	-5.8322	-0.0592	0.0182	-0.0073	-0.0462	0.0165	0.9585
4.798	37.4198	764.9786	56.6954	-277.2535	-19.8871	504.4357	0.77058	-5.8375	0.66215	-2.414	-0.64924	-5.4924	-0.0592	0.0182	-0.0073	-0.0462	0.0165	0.9585
4.812	38.5662	767.8441	59.1058	-277.3535	-20.8573	503.4819	2.0556	-3.1605	0.60691	-1.3784	-1.0946	-3.0799	-0.0592	0.0182	-0.0073	-0.0462	0.0165	0.9585
4.826	39.8093	769.8944	61.5093	-277.1773	-21.8008	501.9729	3.6809	3.1132	0.44496	1.0507	-1.5588	2.5486	-0.0592	0.0182	-0.0073	-0.0462	0.0165	0.9585
4.84	41.1831	770.2882	63.828	-276.4281	-22.6457	499.377	5.5212	14.4258	0.12162	5.4369	-1.9388	12.6712	-0.0592	0.0182	-0.0073	-0.0462	0.0165	0.9585
4.854	42.6923	767.9255	65.9161	-274.7143	-23.2917	495.04	7.2775	32.1429	-0.42136	12.3132	-2.0589	28.5058	-0.0592	0.0182	-0.0073	-0.0462	0.0165	0.9585
4.868	44.2867	761.5655	67.5609	-271.5989	-23.627	488.2608	8.4153	57.1244	-1.2243	22.0191	-1.6716	50.8171	-0.0592	0.0182	-0.0073	-0.0462	0.0165	0.9585
4.882	45.8695	750.0322	68.4829	-266.6781	-23.5228	478.3934	8.1562	89.117	-2.3007	34.4658	-0.46645	79.3713	-0.0592	0.0182	-0.0073	-0.0462	0.0165	0.9585
4.896	47.2732	732.4872	68.4246	-259.6805	-22.901	465.0116	5.7722	126.1623	-3.5623	48.9058	1.7415	112.4099	-0.0592	0.0182	-0.0073	-0.0462	0.0165	0.9585
4.91	48.323	708.724	67.1679	-250.5734	-21.7143	448.0619	1.4812	164.7159	-4.9077	63.9615	4.7597	146.7355	-0.0592	0.0182	-0.0073	-0.0462	0.0165	0.9585
4.924	48.8935	679.3683	64.6139	-239.624	-19.9708	427.9539	-3.6999	200.8219	-6.4168	78.0869	8.2466	178.7015	-0.0592	0.0182	-0.0073	-0.0462	0.0165	0.9585
4.938	48.9494	645.7693	60.8192	-227.3427	-17.7315	405.5005	-8.8511	232.398	-7.9178	90.4723	11.6703	206.3052	-0.0592	0.0182	-0.0073	-0.0462	0.0165	0.9585
4.952	48.5606	609.532	56.0046	-214.3108	-15.1025	381.6422	-13.5277	259.9017	-9.287	101.2923	14.7404	229.8974	-0.0592	0.0182	-0.0073	-0.0462	0.0165	0.9585
4.966	47.8294	572.0026	50.4727	-200.9947	-12.2165	357.1702	-17.5542	284.9796	-10.3272	111.1981	17.2126	250.9317	-0.0592	0.0182	-0.0073	-0.0462	0.0165	0.9585
4.98	46.851	533.9984	44.5031	-187.6556	-9.1846	332.5762	-20.9048	309.29	-11.0259	120.8368	19.0796	270.8914	-0.0592	0.0182	-0.0073	-0.0462	0.0165	0.9585
4.994	45.6539	495.8578	38.3586	-174.3743	-6.1279	308.0756	-23.5919	334.1251	-11.3985	130.7024	20.3744	290.9146	-0.0592	0.0182	-0.0073	-0.0462	0.0165	0.9585
5.008	44.1565	457.5234	32.2856	-161.085	-3.1943	283.6548	-25.6375	360.3749	-11.6405	141.1167	21.2934	311.7797	-0.0592	0.0182	-0.0073	-0.0462	0.0165	0.9585
5.022	42.1755	418.6106	26.5322	-147.6019	-0.57625	259.0966	-27.103	388.5517	-12.0189	152.2417	22.0961	333.9487	-0.0592	0.0182	-0.0073	-0.0462	0.0165	0.9585
5.036	39.4608	378.513	21.3309	-133.6637	1.5061	234.0331	-28.0947	418.8032	-12.8772	164.0889	23.1135	357.5575	-0.0592	0.0182	-0.0073	-0.0462	0.0165	0.9585
5.05	35.7442	336.6782	16.8691	-119.0386	2.8362	208.1101	-28.8044	451.088	-14.599	176.5939	24.732	382.5759	-0.0592	0.0182	-0.0073	-0.0462	0.0165	0.9585
5.064	30.8171	293.0296	13.2405	-103.6833	3.2612	181.2464	-29.4818	485.4719	-17.4866	189.7441	27.2791	409.0618	-0.0592	0.0182	-0.0073	-0.0462	0.0165	0.9585
5.078	24.656	248.2663	10.4117	-87.8554	2.77	153.8273	-30.3346	522.2486	-21.6775	203.6305	30.9237	437.2565	-0.0592	0.0182	-0.0073	-0.0462	0.0165	0.9585
5.092	17.5514	203.8151	8.2785	-72.0884	1.5099	126.6663	-31.4908	561.6734	-27.0301	218.3472	35.5695	467.3686	-0.0592	0.0182	-0.0073	-0.0462	0.0165	0.9585
5.106	10.1339	161.4788	6.7082	-57.0526	-0.21928	100.7893	-32.9955	603.4595	-33.233	233.7938	40.9601	499.1737	-0.0592	0.0182	-0.0073	-0.0462	0.0165	0.9585
5.12	3.2054	122.9489	5.5698	-43.3704	-2.0431	77.178	-34.8237	646.4227	-39.8486	249.5373	46.7131	531.7259	-0.0592	0.0182	-0.0073	-0.0462	0.0165	0.9585
5.134	-2.4771	89.3916	4.7195	-31.4687	-3.5969	56.521	-36.8647	688.5175	-46.4243	264.8231	52.4189	563.3844	-0.0592	0.0182	-0.0073	-0.0462	0.0165	0.9585
5.148	-6.4246	61.3696	3.9927	-21.5525	-4.5997	39.1765	-38.9021	727.2404	-52.5145	278.7299	57.6482	592.138	-0.0592	0.0182	-0.0073	-0.0462	0.0165	0.9585
5.162	-8.4837	38.9934	3.2609	-13.6589	-4.9172	25.2493	-40.6605	760.1371	-57.743	290.3621	62.015	616.0218	-0.0592	0.0182	-0.0073	-0.0462	0.0165	0.9585
5.176	-8.7503	22.0115	2.4763	-7.6913	-4.5615	14.6135	-41.8636	785.169	-61.8318	298.987	65.2169	633.4091	-0.0592	0.0182	-0.0073	-0.0462	0.0165	0.9585
5.19	-7.675	9.9451	1.6906	-3.4704	-3.7295	6.9959	-42.2837	800.9946	-64.6353	304.1397	67.0749	643.2465	-0.0592	0.0182	-0.0073	-0.0462	0.0165	0.9585
5.204	-5.9785	2.1759	0.99985	-0.76797	-2.7317	2.0407	-41.7751	807.1995	-66.1222	305.7071	67.5281	645.2217	-0.0592	0.0182	-0.0073	-0.0462	0.0165	0.9585
5.218	-4.182	-2.1962	0.4729	0.73854	-1.7975	-0.792	-40.2916	804.4493	-66.3471	303.9822	66.6207	639.8661	-0.0592	0.0182	-0.0073	-0.0462	0.0165	0.9585
5.232	-2.5902	-4.119	0.099291	1.3879	-1.0202	-2.0806	-37.8818	794.4823	-65.4486	299.6543	64.5017	628.5539	-0.0592	0.0182	-0.0073	-0.0462	0.0165	0.9585
5.246	-1.3314	-4.4515	-0.13385	1.4848	-0.44099	-2.3728	-34.6874	779.7641	-63.6274	293.6752	61.4014	613.2222	-0.0592	0.0182	-0.0073	-0.0462	0.0165	0.9585
5.26	-0.43995	-3.873	-0.26403	1.2678	-0.045903	-2.09	-30.9227	763.0342	-61.1157	287.0865	57.6002	596.0148	-0.0592	0.0182	-0.0073	-0.0462	0.0165	0.9585
5.274	0.12079	-2.8717	-0.32149	0.90834	0.19255	-1.5259	-26.8183	746.9216	-58.1449	280.8782	53.3787	578.9785	-0.0592	0.0182	-0.0073	-0.0462	0.0165	0.9585
5.288	0.42324	-1.7773	-0.33297	0.52012	0.31309	-0.87885	-22.5955	733.6232	-54.9375	275.8671	48.9989	563.8289	-0.0592	0.0182	-0.0073	-0.0462	0.0165	0.9585
5.302	0.53218	-0.78128	-0.32174	0.16927	0.34936	-0.25985	-18.4473	724.6567	-51.7046	272.6025	44.6929	551.7582	-0.0592	0.0182	-0.0073	-0.0462	0.0165	0.9585
5.316	0.51077	0.010007	-0.30242	-0.10791	0.33148	0.24874	-14.5215	720.7365	-48.6362	271.3239	40.6463	543.3574	-0.0592	0.0182	-0.0073	-0.0462	0.0165	0.9585
5.33	0.40206	0.5504	-0.28122	-0.2936	0.27798	0.6022	-10.936	721.7983	-45.9053	271.9726	37.0093	538.6535	-0.0592	0.0182	-0.0073	-0.0462	0.0165	0.9585
5.344	0.23391	0.82	-0.26012	-0.37831	0.19982	0.77583	-7.7517	727.0435	-43.6427	274.2151	33.8768	537.1153	-0.0592	0.0182	-0.0073	-0.0462	0.0165	0.9585
5.358	0.032829	0.79493	-0.24038	-0.35199	0.10885	0.73674	-4.9925	735.109	-41.9381	277.5101	31.3027	537.8046	-0.0592	0.0182	-0.0073	-0.0462	0.0165	0.9585
5.372	-0.17856	0.44967	-0.2196	-0.20388	0.011277	0.46183	-2.6516	744.2956	-40.8044	281.1973	29.2754	539.5392	-0.0592	0.0182	-0.0073	-0.0462	0.0165	0.9585
5.386	-0.36785	-0.23474	-0.20156	0.074662	-0.074717	-0.086885	-0.7023	752.8242	-40.2012	284.5953	27.748	541.0707	-0.0592	0.0182	-0.0073	-0.0462	0.0165	0.9585
5.4	-0.48785	-1.2573	-0.18025	0.48654	-0.13711	-0.93358	0.86973	759.141	-40.0259	287.1148	26.6392	541.322	-0.0592	0.0182	-0.0073	-0.0462	0.0165	0.9585
5.414	-0.47512	-2.5714	-0.16117	1.0158	-0.14953	-2.0632	2.0793	762.1575	-40.1517	288.3489	25.8602	539.5432	-0.0592	0.0182	-0.0073	-0.0462	0.0165	0.9585
5.428	-0.23827	-4.0548	-0.13793	1.6156	-0.083352	-3.3889	2.9454	761.4624	-40.4399	288.1438	25.3162	535.4526	-0.0592	0.0182	-0.0073	-0.0462	0.0165	0.9585
5.442	0.33746	-5.4662	-0.12524	2.1877	0.11868	-4.7061	3.5332	757.4194	-40.7885	286.6344	24.9222	529.2839	-0.0592	0.0182	-0.0073	-0.0462	0.0165	0.9585
5.456	1.3825	-6.3906	-0.13246	2.5641	0.51711	-5.6524	3.9831	751.08	-41.16	284.2093	24.6041	521.7081	-0.0592	0.0182	-0.0073	-0.0462	0.0165	0.9585
5.47	3.0328	-6.1735	-0.18927	2.4831	1.1928	-5.6555	4.5009	743.9547	-41.5779	281.4231	24.3004	513.6917	-0.0592	0.0182	-0.0073	-0.0462	0.0165	0.9585
